<svg xmlns="http://www.w3.org/2000/svg" viewBox="0 0 733.36536 340.15732">
  <defs id="defs6">
    <clipPath id="clipPath18" clipPathUnits="userSpaceOnUse">
      <path id="path16" d="M 0,255.118 H 550.024 V 0 H 0 Z" />
    </clipPath>
  </defs>
  <defs>
    <style>
      .cls-1 {
        fill: currentColor;
      }
    </style>
  </defs>
  <g transform="matrix(1.3333333,0,0,-1.3333333,0,340.15733)" id="g10">
    <g id="g12">
      <g clip-path="url(#clipPath18)" id="g14">
        <g transform="translate(133.1438,109.3407)" id="g20">
          <path id="path22" class="cls-1"
            d="M 0,0 V 36.445 L 31.561,18.222 Z m 70.352,47.463 c -1.397,5.227 -5.514,9.343 -10.741,10.741 -9.473,2.538 -47.463,2.538 -47.463,2.538 0,0 -37.989,0 -47.463,-2.538 -5.227,-1.398 -9.343,-5.514 -10.741,-10.741 -2.538,-9.474 -2.538,-29.241 -2.538,-29.241 0,0 0,-19.766 2.538,-29.241 1.398,-5.226 5.514,-9.342 10.741,-10.74 9.474,-2.539 47.463,-2.539 47.463,-2.539 0,0 37.99,0 47.463,2.539 5.227,1.398 9.344,5.514 10.741,10.74 2.539,9.475 2.539,29.241 2.539,29.241 0,0 0,19.767 -2.539,29.241" />
        </g>
        <g transform="translate(274.3513,101.0555)" id="g24">
          <path id="path26" class="cls-1"
            d="m 0,0 c 0.665,1.737 0.999,4.574 0.999,8.514 v 16.593 c 0,3.823 -0.334,6.616 -0.999,8.384 -0.667,1.766 -1.84,2.65 -3.519,2.65 -1.622,0 -2.767,-0.884 -3.432,-2.65 -0.666,-1.768 -0.998,-4.561 -0.998,-8.384 V 8.514 c 0,-3.94 0.317,-6.777 0.955,-8.514 0.637,-1.738 1.794,-2.606 3.475,-2.606 1.679,0 2.852,0.868 3.519,2.606 m -13.466,-8.341 c -2.404,1.621 -4.113,4.141 -5.126,7.559 -1.014,3.417 -1.52,7.963 -1.52,13.639 v 7.732 c 0,5.734 0.578,10.339 1.737,13.814 1.158,3.474 2.968,6.008 5.43,7.601 2.461,1.593 5.691,2.389 9.687,2.389 3.938,0 7.094,-0.811 9.469,-2.432 2.374,-1.622 4.112,-4.157 5.212,-7.602 1.1,-3.446 1.652,-8.036 1.652,-13.77 v -7.732 c 0,-5.676 -0.536,-10.238 -1.608,-13.683 -1.072,-3.446 -2.809,-5.966 -5.212,-7.558 -2.404,-1.593 -5.662,-2.389 -9.774,-2.389 -4.228,0 -7.544,0.811 -9.947,2.432" />
        </g>
        <g transform="translate(446.926,136.2005)" id="g28">
          <path id="path30" class="cls-1"
            d="M 0,0 C -0.607,-0.753 -1.014,-1.984 -1.216,-3.692 -1.42,-5.401 -1.52,-7.993 -1.52,-11.468 v -3.823 h 8.774 v 3.823 c 0,3.417 -0.116,6.009 -0.347,7.776 C 6.675,-1.926 6.256,-0.681 5.647,0.043 5.039,0.767 4.097,1.129 2.823,1.129 1.549,1.129 0.608,0.752 0,0 m -1.52,-22.414 v -2.694 c 0,-3.418 0.1,-5.98 0.304,-7.688 0.202,-1.709 0.621,-2.954 1.26,-3.736 0.637,-0.782 1.62,-1.174 2.953,-1.174 1.795,0 3.026,0.697 3.692,2.086 0.665,1.39 1.028,3.706 1.086,6.951 l 10.339,-0.609 c 0.058,-0.464 0.087,-1.1 0.087,-1.911 0,-4.924 -1.347,-8.601 -4.04,-11.033 -2.692,-2.433 -6.502,-3.65 -11.425,-3.65 -5.907,0 -10.048,1.853 -12.424,5.561 -2.375,3.706 -3.561,9.439 -3.561,17.202 v 9.296 c 0,7.992 1.23,13.827 3.692,17.505 2.462,3.678 6.675,5.517 12.641,5.517 4.112,0 7.268,-0.753 9.47,-2.259 2.2,-1.506 3.749,-3.852 4.648,-7.036 0.898,-3.186 1.347,-7.589 1.347,-13.206 v -9.122 z" />
        </g>
        <g transform="translate(231.6912,114.7836)" id="g32">
          <path id="path34" class="cls-1"
            d="M 0,0 -13.64,49.259 H -1.738 L 3.041,26.932 C 4.257,21.429 5.154,16.737 5.733,12.858 h 0.348 c 0.405,2.78 1.303,7.441 2.693,13.987 l 4.952,22.414 H 25.629 L 11.815,0 V -23.632 H 0 Z" />
        </g>
        <g transform="translate(326.136,144.4071)" id="g36">
          <path id="path38" class="cls-1"
            d="m 0,0 v -53.256 h -9.383 l -1.043,6.517 h -0.261 c -2.548,-4.924 -6.372,-7.385 -11.467,-7.385 -3.533,0 -6.14,1.157 -7.819,3.475 -1.68,2.316 -2.519,5.936 -2.519,10.86 V 0 h 11.989 v -39.095 c 0,-2.375 0.261,-4.069 0.781,-5.082 0.522,-1.014 1.39,-1.52 2.607,-1.52 1.043,0 2.042,0.317 2.997,0.956 0.956,0.637 1.665,1.446 2.129,2.432 l 0,42.309 z" />
        </g>
        <g transform="translate(387.6321,144.4071)" id="g40">
          <path id="path42" class="cls-1"
            d="m 0,0 v -53.256 h -9.383 l -1.043,6.517 h -0.261 c -2.549,-4.924 -6.372,-7.385 -11.467,-7.385 -3.533,0 -6.14,1.157 -7.819,3.475 -1.68,2.316 -2.519,5.936 -2.519,10.86 V 0 h 11.988 v -39.095 c 0,-2.375 0.261,-4.069 0.782,-5.082 0.522,-1.014 1.39,-1.52 2.607,-1.52 1.043,0 2.042,0.317 2.997,0.956 0.956,0.637 1.664,1.446 2.129,2.432 l 0,42.309 z" />
        </g>
        <g transform="translate(358.7141,154.3978)" id="g44">
          <path id="path46" class="cls-1" d="M 0,0 H -11.902 V -63.247 H -23.631 V 0 H -35.532 V 9.644 H 0 Z" />
        </g>
        <g transform="translate(416.3206,114.1713)" id="g48">
          <path id="path50" class="cls-1"
            d="m 0,0 c 0,-3.881 -0.16,-6.922 -0.478,-9.122 -0.319,-2.202 -0.855,-3.766 -1.607,-4.692 -0.753,-0.927 -1.768,-1.39 -3.04,-1.39 -0.986,0 -1.898,0.231 -2.737,0.696 -0.84,0.463 -1.521,1.157 -2.041,2.085 V 17.81 c 0.404,1.446 1.098,2.634 2.085,3.562 0.983,0.925 2.054,1.39 3.214,1.39 1.216,0 2.157,-0.478 2.823,-1.434 0.665,-0.955 1.13,-2.563 1.39,-4.822 C -0.13,14.248 0,11.033 0,6.863 Z m 10.99,21.723 c -0.724,3.358 -1.897,5.79 -3.518,7.297 -1.622,1.505 -3.853,2.259 -6.69,2.259 -2.202,0 -4.257,-0.623 -6.168,-1.868 -1.912,-1.246 -3.388,-2.882 -4.43,-4.909 h -0.089 l 0.002,28.062 h -11.555 v -75.583 h 9.903 l 1.217,5.039 h 0.261 c 0.925,-1.796 2.315,-3.215 4.17,-4.258 1.852,-1.042 3.909,-1.562 6.168,-1.562 4.053,0 7.037,1.867 8.948,5.602 1.911,3.737 2.867,9.571 2.867,17.506 v 8.427 c 0,5.965 -0.362,10.627 -1.086,13.988" />
        </g>
        <g transform="translate(133.1438,109.3368)" id="g52">
          <path id="path54" d="M 0,0 31.561,18.222 0,36.445 Z" />
        </g>
      </g>
    </g>
  </g>
</svg>