<?xml version="1.0" encoding="UTF-8"?>
<svg xmlns="http://www.w3.org/2000/svg" xmlns:xlink="http://www.w3.org/1999/xlink" width="1080px" height="1080px" viewBox="0 0 1080 1080" version="1.1">
<g id="surface1">
<path style=" stroke:none;fill-rule:nonzero;fill:rgb(39.215687%,25.882354%,65.098041%);fill-opacity:1;" d="M 116.480469 1048.863281 L 116.480469 87.820312 L 144.835938 32.628906 L 144.839844 104.433594 L 144.992188 993.414062 L 903.925781 549.105469 L 964.878906 513.28125 L 936.652344 568.335938 Z M 116.480469 1048.863281 "/>
<path style=" stroke:none;fill-rule:nonzero;fill:rgb(29.019609%,19.215687%,48.235294%);fill-opacity:1;" d="M 116.480469 1048.863281 L 144.992188 993.414062 L 903.925781 549.105469 L 964.878906 513.28125 L 936.652344 568.335938 Z M 116.480469 1048.863281 "/>
<path style=" stroke:none;fill-rule:nonzero;fill:rgb(60.000002%,40.000001%,100%);fill-opacity:1;" d="M 144.835938 993.726562 L 144.835938 32.679688 L 965.011719 513.195312 Z M 144.835938 993.726562 "/>
<path style=" stroke:none;fill-rule:nonzero;fill:rgb(53.333336%,46.666667%,21.176471%);fill-opacity:1;" d="M 393.191406 178.300781 L 329.375 140.976562 L 423.816406 100.085938 Z M 393.191406 178.300781 "/>
<path style=" stroke:none;fill-rule:nonzero;fill:rgb(53.333336%,46.666667%,21.176471%);fill-opacity:1;" d="M 408.042969 488.015625 L 643.640625 488.015625 L 383.765625 960.128906 L 377.03125 998.832031 L 355.15625 1012.097656 L 433.597656 571.53125 L 223.117188 572.515625 L 401.847656 113.300781 L 530.964844 200.539062 Z M 408.042969 488.015625 "/>
<path style=" stroke:none;fill-rule:nonzero;fill:rgb(53.333336%,46.666667%,21.176471%);fill-opacity:1;" d="M 393.191406 178.300781 L 329.375 140.976562 L 423.816406 100.085938 Z M 393.191406 178.300781 "/>
<path style=" stroke:none;fill-rule:nonzero;fill:rgb(100%,88.235295%,40.000001%);fill-opacity:1;" d="M 429.914062 474.738281 L 665.511719 474.738281 L 377.023438 998.824219 L 455.464844 558.253906 L 244.984375 559.238281 L 423.714844 100.023438 L 552.832031 187.261719 Z M 429.914062 474.738281 "/>
</g>
</svg>
