<svg version="1.0" xmlns="http://www.w3.org/2000/svg" viewBox="0 0 981.000000 254.000000" fill="white">

        <g transform="translate(0.000000,254.000000) scale(0.100000,-0.100000)">
                <path d="M280 1275 c0 -437 2 -795 5 -795 3 0 102 57 220 126 180 105 215 130
219 152 3 15 15 83 26 152 10 69 26 158 35 198 8 41 15 78 15 83 0 5 -74 9
-176 9 -137 0 -175 3 -171 13 66 163 237 604 237 612 0 6 -10 17 -22 24 -56
35 -378 221 -383 221 -3 0 -5 -358 -5 -795z" />
                <path d="M839 1528 c-41 -95 -75 -176 -77 -180 -2 -4 85 -8 193 -8 l197 0 -35
-62 c-19 -35 -82 -150 -141 -257 -59 -106 -105 -195 -103 -197 2 -2 28 11 58
30 30 18 191 113 359 211 392 228 355 204 339 219 -8 7 -140 86 -294 176 -154
90 -308 180 -343 201 -35 22 -67 39 -71 39 -4 0 -41 -77 -82 -172z" />
                <path d="M5990 1575 l0 -65 85 0 85 0 0 65 0 65 -85 0 -85 0 0 -65z" />
                <path d="M9434 1624 c3 -9 6 -164 6 -345 l0 -330 88 3 87 3 2 343 3 342 -96 0
c-84 0 -95 -2 -90 -16z" />
                <path d="M1991 1605 c-81 -25 -131 -93 -131 -180 0 -104 47 -150 195 -196 107
-33 135 -54 135 -100 0 -61 -90 -81 -141 -30 -16 16 -29 37 -29 45 0 13 -14
16 -84 16 -47 0 -87 -4 -90 -9 -12 -18 28 -105 65 -142 53 -53 127 -74 229
-65 151 13 231 80 238 200 5 102 -42 161 -166 206 -32 11 -76 27 -100 36 -69
26 -86 51 -58 89 10 13 25 19 52 18 32 -1 45 -8 70 -38 l32 -36 78 3 c78 3 79
3 75 28 -5 41 -39 97 -71 120 -68 48 -205 64 -299 35z" />
                <path d="M5298 1280 l3 -330 84 0 85 0 0 88 0 87 72 85 c40 47 135 156 210
243 l138 157 -112 0 -113 0 -89 -120 c-49 -66 -93 -120 -98 -120 -4 0 -8 54
-8 120 l0 120 -87 0 -88 0 3 -330z" />
                <path d="M6864 1594 c3 -9 6 -157 6 -330 l0 -314 85 0 85 0 0 330 0 330 -91 0
c-79 0 -90 -2 -85 -16z" />
                <path d="M7070 1545 l0 -65 43 0 c48 0 59 -6 76 -37 17 -33 13 -67 -10 -97
-17 -21 -29 -26 -65 -26 l-44 0 0 -65 0 -65 56 0 c114 0 200 45 238 125 37 78
15 185 -51 247 -40 38 -74 48 -164 48 l-79 0 0 -65z" />
                <path d="M2500 1571 c0 -6 5 -13 10 -16 6 -3 10 -26 10 -51 0 -44 0 -44 -35
-44 l-35 0 0 -70 0 -70 35 0 35 0 0 -151 c0 -84 5 -159 10 -170 19 -35 64 -49
155 -49 l85 0 0 55 c0 48 -3 55 -19 55 -42 0 -51 24 -51 146 l0 114 40 0 40 0
0 70 0 70 -40 0 -40 0 0 60 0 60 -100 0 c-56 0 -100 -4 -100 -9z" />
                <path d="M6318 1520 l4 -60 -31 0 -31 0 0 -70 0 -70 28 0 29 0 6 -152 c9 -208
18 -218 173 -218 l84 0 0 55 c0 46 -3 55 -18 55 -43 0 -52 20 -58 143 l-7 117
46 0 47 0 0 70 0 70 -45 0 -45 0 0 60 0 60 -93 0 -93 0 4 -60z" />
                <path d="M8480 1571 c0 -5 5 -13 10 -16 6 -3 10 -26 10 -51 0 -44 0 -44 -35
-44 l-35 0 0 -70 0 -70 35 0 35 0 0 -145 c0 -209 12 -225 170 -225 l90 0 0 55
c0 52 -2 55 -24 55 -48 0 -56 21 -56 145 l0 114 43 3 42 3 0 65 0 65 -42 3
-42 3 -3 57 -3 57 -97 3 c-59 2 -98 -1 -98 -7z" />
                <path d="M3145 1455 c-22 -8 -50 -26 -62 -39 l-22 -26 -3 33 -3 32 -94 3 c-83
2 -93 1 -87 -13 3 -9 6 -124 6 -256 l0 -240 88 3 87 3 5 142 c5 139 6 143 32
170 18 17 42 29 70 32 l43 6 0 79 c0 44 -4 81 -10 82 -5 2 -28 -3 -50 -11z" />
                <path d="M3445 1461 c-63 -16 -116 -52 -145 -98 -70 -111 -60 -264 23 -351 53
-55 82 -66 177 -66 92 0 143 18 186 66 20 21 54 80 54 93 0 3 -37 5 -81 5 -74
0 -84 -2 -105 -25 -47 -51 -107 -24 -116 50 l-3 30 159 3 159 3 -7 61 c-11
113 -59 185 -141 216 -42 15 -124 22 -160 13z m109 -133 c9 -12 16 -33 16 -45
0 -22 -4 -23 -65 -23 -64 0 -65 1 -65 27 0 59 81 88 114 41z" />
                <path d="M4010 1464 c-62 -12 -92 -29 -130 -71 -60 -69 -56 -75 43 -69 45 3
102 7 127 11 52 7 68 -1 72 -35 3 -25 3 -25 -107 -30 -126 -6 -163 -20 -189
-74 -30 -63 -11 -163 40 -208 50 -44 145 -60 213 -37 30 10 31 13 31 65 l0 54
-30 -6 c-41 -9 -80 18 -80 54 0 40 17 52 77 52 l53 0 0 -110 0 -110 85 0 85 0
0 199 c0 190 -1 199 -23 232 -34 50 -91 78 -173 83 -38 2 -80 2 -94 0z" />
                <path d="M4969 1460 c-20 -4 -52 -16 -71 -28 l-36 -23 -38 26 c-52 35 -145 36
-198 0 l-36 -24 0 24 c0 25 -1 25 -90 25 l-90 0 0 -255 0 -255 90 0 90 0 0
163 c0 181 8 210 53 215 54 6 57 -4 57 -199 l0 -179 90 0 90 0 0 168 c0 135 3
172 16 190 17 25 65 30 83 9 6 -8 12 -80 13 -188 l3 -174 88 -3 87 -3 0 193
c0 168 -3 198 -19 235 -30 66 -99 97 -182 83z" />
                <path d="M8325 1455 c-22 -8 -50 -26 -62 -39 l-22 -26 -3 33 -3 32 -94 3 c-83
2 -93 1 -87 -13 3 -9 6 -124 6 -256 l0 -239 90 0 90 0 0 131 c0 176 22 219
110 219 l30 0 0 85 c0 47 -3 85 -7 85 -5 -1 -26 -7 -48 -15z" />
                <path d="M9035 1466 c-5 -3 -27 -7 -48 -11 -41 -7 -100 -53 -123 -96 -7 -15
-14 -31 -14 -34 0 -7 129 0 217 10 46 6 53 5 63 -15 23 -43 9 -50 -103 -50
-92 0 -108 -3 -138 -23 -72 -48 -88 -148 -35 -227 44 -67 150 -98 235 -69 30
10 31 13 31 65 l0 54 -30 -6 c-39 -8 -80 18 -80 51 0 38 25 55 81 55 l49 0 0
-110 0 -110 85 0 85 0 0 195 c0 208 -4 227 -52 272 -12 12 -36 26 -51 32 -30
12 -155 23 -172 17z" />
                <path d="M5984 1444 c3 -9 6 -123 6 -255 l0 -239 85 0 85 0 0 255 0 255 -91 0
c-79 0 -90 -2 -85 -16z" />
                <path d="M7584 1441 c-52 -24 -108 -90 -124 -146 -16 -59 -9 -180 15 -225 36
-72 98 -116 171 -122 l39 -3 3 61 c3 54 0 62 -17 67 -36 9 -55 54 -55 131 0
79 13 112 50 126 22 9 24 15 24 70 l0 60 -32 0 c-18 0 -51 -9 -74 -19z" />
                <path d="M7710 1402 c0 -57 2 -62 28 -74 70 -34 69 -219 -1 -257 -25 -13 -27
-20 -27 -74 l0 -59 38 7 c103 19 171 78 198 172 46 160 -46 324 -191 340 l-45
6 0 -61z" />
                <path d="M5655 1306 c-6 -8 -31 -39 -57 -69 l-48 -54 61 -112 c34 -62 67 -115
73 -117 7 -3 55 -3 108 -2 l95 3 -101 179 c-57 99 -107 181 -112 183 -5 2 -14
-3 -19 -11z" />
        </g>
</svg>